# xmcd CD database file
#
# Track frame offsets:
#	187
#	21137
#	39912
#
# Disc length: 810 seconds
#
# Revision: 0
# Processed by: cddbd v1.5PL3 Copyright (c) Steve Scherf et al.
# Submitted via: CDex 1.50beta9
#
DISCID=17032803
DTITLE=KAN - こっぱみじかい恋
DYEAR=1992
DGENRE=J-POP
TTITLE0=こっぱみじかい恋
TTITLE1=東京ライフ
TTITLE2=こっぱみじかい恋　カラオケ
EXTD=YEAR: 1992
EXTT0=
EXTT1=
EXTT2=
PLAYORDER=
